# Blender 4.0.2
# www.blender.org
mtllib ploaie.mtl
o Icosphere
v 0.013135 -0.855843 -0.015965
v 0.389864 -0.131038 0.209905
v -0.134553 -0.138066 0.354645
v -0.464906 -0.137043 -0.000591
v -0.144651 -0.129392 -0.364878
v 0.383624 -0.125677 -0.234781
v 0.144651 1.035739 0.364878
v -0.383624 1.032025 0.234781
v -0.389864 1.037385 -0.209905
v 0.134553 1.044414 -0.354645
v 0.464906 1.043391 0.000591
v -0.013135 1.762190 0.015965
v -0.071367 -0.663769 0.199070
v 0.236876 -0.659638 0.113994
v 0.150068 -0.237738 0.331834
v 0.454643 -0.230455 -0.014622
v 0.233208 -0.656487 -0.147384
v -0.265543 -0.663167 -0.009731
v -0.352354 -0.241269 0.208107
v -0.077302 -0.658670 -0.223852
v -0.358289 -0.236171 -0.214816
v 0.140465 -0.229489 -0.352470
v 0.502422 0.456706 0.123726
v 0.498754 0.459857 -0.137653
v 0.005935 0.448075 0.422926
v 0.314182 0.452206 0.337850
v -0.498754 0.446490 0.137653
v -0.304578 0.445892 0.346458
v -0.314182 0.454142 -0.337850
v -0.502422 0.449641 -0.123726
v 0.304578 0.460456 -0.346458
v -0.005935 0.458272 -0.422926
v 0.358289 1.142518 0.214816
v -0.140465 1.135836 0.352470
v -0.454643 1.136802 0.014622
v -0.150068 1.144086 -0.331834
v 0.352354 1.147617 -0.208107
v 0.077302 1.565018 0.223852
v 0.265543 1.569515 0.009731
v -0.233208 1.562834 0.147384
v -0.236876 1.565985 -0.113994
v 0.071367 1.570116 -0.199070
vn 0.0100 -0.9999 -0.0122
vn 0.6501 -0.5127 0.5608
vn -0.2063 -0.4821 0.8515
vn 0.7404 -0.1818 0.6471
vn 0.9728 -0.2312 -0.0164
vn -0.8326 -0.5538 0.0050
vn -0.2303 -0.4615 -0.8567
vn 0.6340 -0.4988 -0.5910
vn 0.9322 0.0049 0.3619
vn -0.2342 -0.1762 0.9561
vn 0.2628 -0.2080 0.9422
vn 0.0140 -0.0121 0.9998
vn -0.9783 -0.2071 0.0112
vn -0.7117 -0.2374 0.6612
vn -0.9217 -0.0140 0.3877
vn -0.2610 -0.1532 -0.9531
vn -0.7300 -0.2216 -0.6465
vn -0.5162 0.0053 -0.8564
vn 0.7219 -0.1659 -0.6718
vn 0.2362 -0.1851 -0.9539
vn 0.4920 0.0156 -0.8705
vn 0.5162 -0.0053 0.8564
vn -0.4920 -0.0156 0.8705
vn -0.9322 -0.0049 -0.3619
vn -0.0140 0.0121 -0.9998
vn 0.9217 0.0140 -0.3877
vn 0.2610 0.1532 0.9531
vn 0.7300 0.2216 0.6465
vn 0.2303 0.4615 0.8567
vn -0.7219 0.1659 0.6718
vn -0.2362 0.1851 0.9539
vn -0.6340 0.4988 0.5910
vn -0.7404 0.1818 -0.6471
vn -0.9728 0.2312 0.0164
vn -0.6501 0.5127 -0.5608
vn 0.2342 0.1762 -0.9561
vn -0.2628 0.2080 -0.9422
vn 0.2063 0.4821 -0.8515
vn 0.9783 0.2071 -0.0112
vn 0.7117 0.2374 -0.6612
vn 0.8326 0.5538 -0.0050
vn -0.0100 0.9999 0.0122
vt 0.480984 0.222075
vt 0.483700 0.226780
vt 0.478267 0.226780
vt 0.486417 0.231486
vt 0.489134 0.226780
vt 0.491850 0.231486
vt 0.524450 0.222075
vt 0.527166 0.226780
vt 0.521733 0.226780
vt 0.513583 0.222075
vt 0.516300 0.226780
vt 0.510867 0.226780
vt 0.502717 0.222075
vt 0.505433 0.226780
vt 0.500000 0.226780
vt 0.489134 0.236191
vt 0.475550 0.231486
vt 0.480984 0.231486
vt 0.478267 0.236191
vt 0.519016 0.231486
vt 0.524450 0.231486
vt 0.521733 0.236191
vt 0.508150 0.231486
vt 0.513583 0.231486
vt 0.510867 0.236191
vt 0.497283 0.231486
vt 0.502717 0.231486
vt 0.500000 0.236191
vt 0.483700 0.236191
vt 0.472834 0.236191
vt 0.516300 0.236191
vt 0.505433 0.236191
vt 0.494567 0.236191
vt 0.480984 0.240896
vt 0.486417 0.240896
vt 0.483700 0.245602
vt 0.470117 0.240896
vt 0.475550 0.240896
vt 0.472834 0.245602
vt 0.513583 0.240896
vt 0.519016 0.240896
vt 0.516300 0.245602
vt 0.502717 0.240896
vt 0.508150 0.240896
vt 0.505433 0.245602
vt 0.491850 0.240896
vt 0.497283 0.240896
vt 0.494567 0.245602
vt 0.500000 0.245602
vt 0.497283 0.250307
vt 0.510867 0.245602
vt 0.508150 0.250307
vt 0.521733 0.245602
vt 0.519016 0.250307
vt 0.524450 0.240896
vt 0.478267 0.245602
vt 0.475550 0.250307
vt 0.489134 0.245602
vt 0.486417 0.250307
vt 0.527166 0.236191
vt 0.529883 0.231486
vt 0.494567 0.226780
vt 0.491850 0.222075
s 1
usemtl Material.001
f 1/1/1 14/2/2 13/3/3
f 2/4/4 14/5/2 16/6/5
f 1/7/1 13/8/3 18/9/6
f 1/10/1 18/11/6 20/12/7
f 1/13/1 20/14/7 17/15/8
f 2/4/4 16/6/5 23/16/9
f 3/17/10 15/18/11 25/19/12
f 4/20/13 19/21/14 27/22/15
f 5/23/16 21/24/17 29/25/18
f 6/26/19 22/27/20 31/28/21
f 2/4/4 23/16/9 26/29/22
f 3/17/10 25/19/12 28/30/23
f 4/20/13 27/22/15 30/31/24
f 5/23/16 29/25/18 32/32/25
f 6/26/19 31/28/21 24/33/26
f 7/34/27 33/35/28 38/36/29
f 8/37/30 34/38/31 40/39/32
f 9/40/33 35/41/34 41/42/35
f 10/43/36 36/44/37 42/45/38
f 11/46/39 37/47/40 39/48/41
f 39/48/41 42/49/38 12/50/42
f 39/48/41 37/47/40 42/49/38
f 37/47/40 10/43/36 42/49/38
f 42/45/38 41/51/35 12/52/42
f 42/45/38 36/44/37 41/51/35
f 36/44/37 9/40/33 41/51/35
f 41/42/35 40/53/32 12/54/42
f 41/42/35 35/41/34 40/53/32
f 35/41/34 8/55/30 40/53/32
f 40/39/32 38/56/29 12/57/42
f 40/39/32 34/38/31 38/56/29
f 34/38/31 7/34/27 38/56/29
f 38/36/29 39/58/41 12/59/42
f 38/36/29 33/35/28 39/58/41
f 33/35/28 11/46/39 39/58/41
f 24/33/26 37/47/40 11/46/39
f 24/33/26 31/28/21 37/47/40
f 31/28/21 10/43/36 37/47/40
f 32/32/25 36/44/37 10/43/36
f 32/32/25 29/25/18 36/44/37
f 29/25/18 9/40/33 36/44/37
f 30/31/24 35/41/34 9/40/33
f 30/31/24 27/22/15 35/41/34
f 27/22/15 8/55/30 35/41/34
f 28/30/23 34/38/31 8/37/30
f 28/30/23 25/19/12 34/38/31
f 25/19/12 7/34/27 34/38/31
f 26/29/22 33/35/28 7/34/27
f 26/29/22 23/16/9 33/35/28
f 23/16/9 11/46/39 33/35/28
f 31/28/21 32/32/25 10/43/36
f 31/28/21 22/27/20 32/32/25
f 22/27/20 5/23/16 32/32/25
f 29/25/18 30/31/24 9/40/33
f 29/25/18 21/24/17 30/31/24
f 21/24/17 4/20/13 30/31/24
f 27/22/15 28/60/23 8/55/30
f 27/22/15 19/21/14 28/60/23
f 19/21/14 3/61/10 28/60/23
f 25/19/12 26/29/22 7/34/27
f 25/19/12 15/18/11 26/29/22
f 15/18/11 2/4/4 26/29/22
f 23/16/9 24/33/26 11/46/39
f 23/16/9 16/6/5 24/33/26
f 16/6/5 6/26/19 24/33/26
f 17/15/8 22/27/20 6/26/19
f 17/15/8 20/14/7 22/27/20
f 20/14/7 5/23/16 22/27/20
f 20/12/7 21/24/17 5/23/16
f 20/12/7 18/11/6 21/24/17
f 18/11/6 4/20/13 21/24/17
f 18/9/6 19/21/14 4/20/13
f 18/9/6 13/8/3 19/21/14
f 13/8/3 3/61/10 19/21/14
f 16/6/5 17/62/8 6/26/19
f 16/6/5 14/5/2 17/62/8
f 14/5/2 1/63/1 17/62/8
f 13/3/3 15/18/11 3/17/10
f 13/3/3 14/2/2 15/18/11
f 14/2/2 2/4/4 15/18/11
